<svg width="28" height="28" viewBox="0 0 28 28" fill="none" xmlns="http://www.w3.org/2000/svg">
<g clip-path="url(#clip0_216_15)">
<path d="M14 8.8V19.2ZM14 8.8V1ZM14 8.8L7.5 2.3ZM14 8.8L20.5 2.3ZM14 19.2V27ZM14 19.2L7.5 25.7ZM14 19.2L20.5 25.7ZM19.2 14H8.8ZM19.2 14H27ZM19.2 14L25.7 7.5ZM19.2 14L25.7 20.5ZM8.8 14H1ZM8.8 14L2.3 7.5ZM8.8 14L2.3 20.5Z" fill="#D9D9D9"/>
<path d="M14 8.8V19.2M14 8.8V1M14 8.8L7.5 2.3M14 8.8L20.5 2.3M14 19.2V27M14 19.2L7.5 25.7M14 19.2L20.5 25.7M19.2 14H8.8M19.2 14H27M19.2 14L25.7 7.5M19.2 14L25.7 20.5M8.8 14H1M8.8 14L2.3 7.5M8.8 14L2.3 20.5" stroke="white" stroke-width="2" stroke-linecap="round" stroke-linejoin="round"/>
</g>
<defs>
<clipPath id="clip0_216_15">
<rect width="28" height="28" fill="white"/>
</clipPath>
</defs>
</svg>
