<svg width="28" height="28" viewBox="0 0 28 28" fill="none" xmlns="http://www.w3.org/2000/svg">
<g clip-path="url(#clip0_216_15)">
<path d="M8.94444 19.7778C8.94444 19.7778 10.1609 20.307 10.9667 20.4473C13.3442 20.8608 14.6558 18.6947 17.0333 19.1083C17.8392 19.2485 19.0556 19.7778 19.0556 19.7778M7.5 14C7.5 14 9.06396 14.5292 10.1 14.6695C13.1569 15.083 14.8431 12.917 17.9 13.3305C18.9361 13.4708 20.5 14 20.5 14M8.94444 8.22222C8.94444 8.22222 10.1609 8.75148 10.9667 8.89166C13.3442 9.3053 14.6558 7.13915 17.0333 7.55278C17.8392 7.69296 19.0556 8.22222 19.0556 8.22222M27 14C27 21.1798 21.1798 27 14 27C6.8203 27 1 21.1798 1 14C1 6.8203 6.8203 1 14 1C21.1798 1 27 6.8203 27 14Z" stroke="white" stroke-width="2" stroke-linecap="round" stroke-linejoin="round"/>
</g>
<defs>
<clipPath id="clip0_216_15">
<rect width="28" height="28" fill="white"/>
</clipPath>
</defs>
</svg>
